<svg xmlns="http://www.w3.org/2000/svg" data-name="Layer 1" viewBox="0 0 512 512"><circle cx="256" cy="256" r="248.5" fill="#fed947"/><circle cx="256" cy="256" r="198.5" fill="#f69531"/><path fill="#f48a31" d="M256,57.5a199.67524,199.67524,0,0,0-22.5,1.28284C332.39716,69.99268,409.5,154.15466,409.5,256s-77.10284,186.00732-176,197.21716A199.67524,199.67524,0,0,0,256,454.5c109.45312,0,198.5-89.04688,198.5-198.5S365.45312,57.5,256,57.5Z"/><path fill="#fed947" d="M327.53,256a74.98893,74.98893,0,0,0-20.46-125.3V104a7.53689,7.53689,0,0,0-7.53-7.54H285.3a7.54542,7.54542,0,0,0-7.54,7.54v20.78H252.64V104a7.54543,7.54543,0,0,0-7.54-7.54H230.86a7.53687,7.53687,0,0,0-7.53,7.54v20.78H167.48a8.36695,8.36695,0,0,0-8.37,8.37v20.97a8.36909,8.36909,0,0,0,8.37,8.38h9.79a8.37336,8.37336,0,0,1,8.37,8.37V345.32a4.18029,4.18029,0,0,1-4.19,4.18H167.48a8.36909,8.36909,0,0,0-8.37,8.38v20.97a8.36695,8.36695,0,0,0,8.37,8.37h55.85v28.32h29.31V387.22h25.12v28.32h29.31V381.3A74.98893,74.98893,0,0,0,327.53,256Zm-49.67,93.54H223.33v-74.7h54.53a37.35,37.35,0,1,1,0,74.7Zm0-112.38H223.33V162.46h54.53a37.35,37.35,0,1,1,0,74.7Z"/></svg>